<?xml version="1.0" encoding="UTF-8" standalone="no"?>
<!-- Created with Inkscape (http://www.inkscape.org/) -->

<svg
   xmlns:dc="http://purl.org/dc/elements/1.1/"
   xmlns:cc="http://creativecommons.org/ns#"
   xmlns:rdf="http://www.w3.org/1999/02/22-rdf-syntax-ns#"
   xmlns:svg="http://www.w3.org/2000/svg"
   xmlns="http://www.w3.org/2000/svg"
   xmlns:xlink="http://www.w3.org/1999/xlink"
   xmlns:sodipodi="http://sodipodi.sourceforge.net/DTD/sodipodi-0.dtd"
   xmlns:inkscape="http://www.inkscape.org/namespaces/inkscape"
   width="1000"
   height="1000"
   id="svg2"
   version="1.1"
   inkscape:version="0.48.3.1 r9886"
   sodipodi:docname="New document 1">
  <defs
     id="defs4">
    <linearGradient
       inkscape:collect="always"
       id="linearGradient3053">
      <stop
         style="stop-color:#ffaaaa;stop-opacity:1"
         offset="0"
         id="stop3055" />
      <stop
         style="stop-color:#aa0000;stop-opacity:1"
         offset="1"
         id="stop3057" />
    </linearGradient>
    <radialGradient
       inkscape:collect="always"
       xlink:href="#linearGradient3053"
       id="radialGradient3107"
       cx="505.42856"
       cy="499.98358"
       fx="505.42856"
       fy="499.98358"
       r="250"
       gradientTransform="matrix(-0.02955825,-2.0113268,1.8514825,-0.02720417,-405.34266,1530.1837)"
       gradientUnits="userSpaceOnUse" />
  </defs>
  <sodipodi:namedview
     id="base"
     pagecolor="#ffffff"
     bordercolor="#666666"
     borderopacity="1.0"
     inkscape:pageopacity="0.0"
     inkscape:pageshadow="2"
     inkscape:zoom="0.35"
     inkscape:cx="37.857143"
     inkscape:cy="520"
     inkscape:document-units="px"
     inkscape:current-layer="layer1"
     showgrid="false"
     showguides="true"
     inkscape:guide-bbox="true"
     inkscape:window-width="1920"
     inkscape:window-height="1056"
     inkscape:window-x="0"
     inkscape:window-y="24"
     inkscape:window-maximized="1" />
  <metadata
     id="metadata7">
    <rdf:RDF>
      <cc:Work
         rdf:about="">
        <dc:format>image/svg+xml</dc:format>
        <dc:type
           rdf:resource="http://purl.org/dc/dcmitype/StillImage" />
        <dc:title></dc:title>
      </cc:Work>
    </rdf:RDF>
  </metadata>
  <g
     inkscape:groupmode="layer"
     id="layer5"
     inkscape:label="ArmL"
     style="display:inline">
    <path
       style="fill:#000000;fill-opacity:1;display:inline"
       id="path3202-6"
       d="m 335.37595,337.91391 c 4.23028,-10.21059 8.0266,-20.59813 11.65196,-31.03714 2.56008,-7.92501 6.6132,-15.22032 10.01214,-22.78676 2.01116,-5.78896 4.30859,-11.47249 6.40043,-17.23042 2.30725,-6.74692 5.23486,-13.24714 8.0185,-19.80397 2.70149,-6.32118 7.15211,-11.50439 12.19742,-16.06649 16.22719,-12.35344 33.65751,-25.35446 54.10895,-28.10286 6.9706,-2.19315 14.26413,-2.80271 21.51289,-3.28813 7.56963,-0.39363 15.15418,-0.33221 22.73161,-0.34896 7.88501,0.0263 15.76997,0.0376 23.65512,0.0233 6.53414,-0.40027 12.54605,1.98621 17.5684,6.0275 4.30813,2.9524 8.60958,5.83157 12.36743,9.4924 4.0316,4.34883 7.17911,9.45216 10.38623,14.42168 2.69983,5.14536 5.51614,10.23974 8.16974,15.41489 2.58921,5.27349 3.35915,11.05923 3.80945,16.84149 0.93521,4.88906 1.97663,9.72937 2.52136,14.68489 0.40682,4.643 1.3334,9.33829 2.70791,13.79688 0,0 -37.2414,20.48644 -37.2414,20.48644 l 0,0 c -1.60472,-4.6737 -2.544,-9.7419 -3.09505,-14.63195 -0.45746,-5.01728 -1.39916,-9.92501 -2.5587,-14.8261 -0.29033,-5.22988 -0.7255,-10.51616 -2.99725,-15.3247 -2.57312,-5.05258 -5.30718,-10.02784 -7.88754,-15.07076 -3.05357,-4.67117 -6.03768,-9.49883 -9.96685,-13.4918 -3.7572,-3.40699 -7.98267,-6.10883 -12.0704,-9.08627 -4.83022,-3.20685 -10.14818,-4.25314 -15.92475,-3.88428 -7.87713,-0.0318 -15.75411,-0.0511 -23.63124,-0.0237 -7.52053,0.0158 -15.05049,0.0422 -22.55323,0.62174 -7.19011,0.6611 -14.25099,1.90968 -21.26088,3.64723 -2.86581,0.68307 -3.83622,0.80451 -6.53952,1.86255 -1.02103,0.39961 -3.9431,1.90714 -3.00194,1.34463 58.37871,-34.89154 40.93354,-24.0322 28.49493,-16.499 -5.10929,4.08712 -9.98671,8.5232 -13.13145,14.36872 -2.84389,6.40273 -5.47909,12.87697 -8.01464,19.40777 -1.85774,5.94485 -4.62446,11.54631 -6.32255,17.5495 -3.09586,7.72399 -7.60876,14.79611 -10.41122,22.65554 -3.58,10.38647 -7.46577,20.6641 -11.25942,30.97361 0,0 -38.44644,17.88246 -38.44644,17.88246 z"
       inkscape:connector-curvature="0" />
  </g>
  <g
     inkscape:label="ArmR"
     id="g3149"
     inkscape:groupmode="layer"
     style="display:inline">
    <path
       style="fill:#000000;fill-opacity:1"
       id="path3202"
       d="m 318.94493,670.37928 c 4.23028,10.21059 8.0266,20.59813 11.65195,31.03714 2.56008,7.92501 6.6132,15.22032 10.01214,22.78676 2.01116,5.78896 4.30859,11.47249 6.40043,17.23042 2.30725,6.74692 5.23486,13.24714 8.0185,19.80397 2.70149,6.32118 7.15211,11.50439 12.19742,16.06649 16.22719,12.35344 33.65751,25.35446 54.10895,28.10286 6.9706,2.19315 14.26413,2.80271 21.51289,3.28813 7.56963,0.39363 15.15418,0.33221 22.73161,0.34896 7.88501,-0.0263 15.76997,-0.0376 23.65512,-0.0233 6.53414,0.40027 12.54605,-1.98621 17.5684,-6.0275 4.30813,-2.9524 8.60958,-5.83157 12.36743,-9.4924 4.0316,-4.34883 7.17911,-9.45216 10.38623,-14.42168 2.69983,-5.14536 5.51614,-10.23974 8.16974,-15.41489 2.58921,-5.27349 3.35915,-11.05923 3.80945,-16.84149 0.93521,-4.88906 1.97663,-9.72937 2.52136,-14.68489 0.40682,-4.643 1.3334,-9.33829 2.70791,-13.79688 0,0 -37.2414,-20.48644 -37.2414,-20.48644 l 0,0 c -1.60472,4.6737 -2.544,9.7419 -3.09505,14.63195 -0.45746,5.01728 -1.39916,9.92501 -2.5587,14.8261 -0.29033,5.22988 -0.7255,10.51616 -2.99725,15.3247 -2.57312,5.05258 -5.30718,10.02784 -7.88754,15.07076 -3.05357,4.67117 -6.03768,9.49883 -9.96685,13.4918 -3.7572,3.40699 -7.98267,6.10883 -12.0704,9.08627 -4.83022,3.20685 -10.14818,4.25314 -15.92475,3.88428 -7.87713,0.0318 -15.75411,0.0511 -23.63124,0.0237 -7.52053,-0.0158 -15.05049,-0.0422 -22.55323,-0.62174 -7.19011,-0.6611 -14.25099,-1.90968 -21.26088,-3.64723 -2.86581,-0.68307 -3.83622,-0.80451 -6.53952,-1.86255 -1.02103,-0.39961 -3.9431,-1.90714 -3.00194,-1.34463 58.37871,34.89154 40.93354,24.0322 28.49493,16.499 -5.10929,-4.08712 -9.98671,-8.5232 -13.13145,-14.36872 -2.84389,-6.40273 -5.47909,-12.87697 -8.01464,-19.40777 -1.85774,-5.94485 -4.62446,-11.54631 -6.32255,-17.5495 -3.09586,-7.72399 -7.60876,-14.79611 -10.41122,-22.65554 -3.58,-10.38647 -7.46577,-20.6641 -11.25942,-30.97361 0,0 -38.44643,-17.88246 -38.44643,-17.88246 z"
       inkscape:connector-curvature="0" />
  </g>
  <g
     inkscape:label="Layer 1"
     inkscape:groupmode="layer"
     id="layer1"
     transform="translate(0,-52.362183)"
     style="display:inline">
    <path
       sodipodi:type="arc"
       style="fill:url(#radialGradient3107);fill-opacity:1"
       id="path3043"
       sodipodi:cx="501.42856"
       sodipodi:cy="502.85715"
       sodipodi:rx="250"
       sodipodi:ry="248.57143"
       d="m 751.42856,502.85715 a 250,248.57143 0 1 1 -500,0 250,248.57143 0 1 1 500,0 z"
       transform="translate(6,52.362183)" />
  </g>
</svg>
