<?xml version="1.0" encoding="UTF-8" standalone="no"?>
<!-- Created with Inkscape (http://www.inkscape.org/) -->

<svg
   xmlns:dc="http://purl.org/dc/elements/1.1/"
   xmlns:cc="http://creativecommons.org/ns#"
   xmlns:rdf="http://www.w3.org/1999/02/22-rdf-syntax-ns#"
   xmlns:svg="http://www.w3.org/2000/svg"
   xmlns="http://www.w3.org/2000/svg"
   xmlns:xlink="http://www.w3.org/1999/xlink"
   xmlns:sodipodi="http://sodipodi.sourceforge.net/DTD/sodipodi-0.dtd"
   xmlns:inkscape="http://www.inkscape.org/namespaces/inkscape"
   width="1000"
   height="1000"
   id="svg2"
   version="1.1"
   inkscape:version="0.48.3.1 r9886"
   sodipodi:docname="NoArms.svg">
  <defs
     id="defs4">
    <linearGradient
       inkscape:collect="always"
       id="linearGradient3053">
      <stop
         style="stop-color:#ffaaaa;stop-opacity:1"
         offset="0"
         id="stop3055" />
      <stop
         style="stop-color:#aa0000;stop-opacity:1"
         offset="1"
         id="stop3057" />
    </linearGradient>
    <radialGradient
       inkscape:collect="always"
       xlink:href="#linearGradient3053"
       id="radialGradient3107"
       cx="505.42856"
       cy="499.98358"
       fx="505.42856"
       fy="499.98358"
       r="250"
       gradientTransform="matrix(-0.02955825,-2.0113268,1.8514825,-0.02720417,-405.34266,1530.1837)"
       gradientUnits="userSpaceOnUse" />
  </defs>
  <sodipodi:namedview
     id="base"
     pagecolor="#ffffff"
     bordercolor="#666666"
     borderopacity="1.0"
     inkscape:pageopacity="0.0"
     inkscape:pageshadow="2"
     inkscape:zoom="0.35"
     inkscape:cx="37.857143"
     inkscape:cy="520"
     inkscape:document-units="px"
     inkscape:current-layer="layer10"
     showgrid="false"
     showguides="true"
     inkscape:guide-bbox="true"
     inkscape:window-width="1920"
     inkscape:window-height="1056"
     inkscape:window-x="0"
     inkscape:window-y="24"
     inkscape:window-maximized="1" />
  <metadata
     id="metadata7">
    <rdf:RDF>
      <cc:Work
         rdf:about="">
        <dc:format>image/svg+xml</dc:format>
        <dc:type
           rdf:resource="http://purl.org/dc/dcmitype/StillImage" />
        <dc:title></dc:title>
      </cc:Work>
    </rdf:RDF>
  </metadata>
  <g
     inkscape:groupmode="layer"
     id="layer9"
     inkscape:label="HandR">
    <path
       style="fill:#784421;fill-opacity:1"
       id="path3263-7"
       d="m 473.16128,801.00637 c 14.36531,4.55309 28.92109,8.48801 43.5719,12.02642 9.52371,2.50769 19.26401,3.31294 29.06147,3.60233 7.21913,-0.79779 14.49123,-1.23718 21.25053,-4.02641 7.73225,-2.72636 12.84856,-9.13227 17.16695,-15.77343 4.43621,-8.00565 7.71562,-16.57978 12.18823,-24.56711 3.18891,-5.66978 6.11665,-11.48193 7.99864,-17.72008 1.62481,-6.82557 1.84017,-13.93205 1.49802,-20.91312 -2.45257,-24.60185 -18.53331,-22.60931 -44.69414,-37.41648 -7.92819,-1.86493 -15.888,-3.22547 -24.00211,-3.92503 -4.93326,-0.73561 -9.7204,-0.21801 -14.60203,0.4989 0,0 34.55511,24.46792 34.55511,24.46792 l 0,0 c 4.66321,-0.45182 9.29712,-0.4067 13.95584,0.19136 7.89579,0.90642 15.82419,2.24282 23.30609,5.00169 -11.0496,-6.54843 -22.15926,-12.99658 -33.14882,-19.64531 -0.8094,-0.48969 1.80917,0.62537 2.59113,1.15778 3.23958,2.20573 3.55315,7.32797 4.21247,10.77405 0.74018,6.47517 0.27593,13.10436 -0.90723,19.50843 -1.61737,6.00482 -4.48694,11.51028 -7.37055,16.99609 -4.26171,7.9597 -7.65567,16.35236 -11.98603,24.27831 -4.04026,6.00767 -8.67628,11.2557 -15.86612,13.39263 -6.51069,1.97404 -13.41287,2.58696 -20.19039,2.78558 -9.5122,-0.44871 -18.944,-1.65471 -28.19281,-4.0004 -14.78608,-3.60864 -29.44875,-7.69399 -43.87904,-12.54458 0,0 33.48289,25.85046 33.48289,25.85046 z"
       inkscape:connector-curvature="0" />
  </g>
  <g
     inkscape:groupmode="layer"
     id="layer10"
     inkscape:label="HandL"
     style="display:inline">
    <path
       style="fill:#784421;fill-opacity:1"
       id="path3263"
       d="m 483.01622,197.47805 c 14.36531,-4.55309 28.92109,-8.48801 43.5719,-12.02642 9.52371,-2.50769 19.26401,-3.31294 29.06147,-3.60233 7.21913,0.79779 14.49123,1.23718 21.25053,4.02641 7.73225,2.72636 12.84856,9.13227 17.16695,15.77343 4.43621,8.00565 7.71562,16.57978 12.18823,24.56711 3.18891,5.66978 6.11665,11.48193 7.99864,17.72008 1.62481,6.82557 1.84017,13.93205 1.49802,20.91312 -2.45257,24.60185 -18.53331,22.60931 -44.69414,37.41648 -7.92819,1.86493 -15.888,3.22547 -24.00211,3.92503 -4.93326,0.73561 -9.7204,0.21801 -14.60203,-0.4989 0,0 34.55511,-24.46792 34.55511,-24.46792 l 0,0 c 4.66321,0.45182 9.29712,0.4067 13.95584,-0.19136 7.89579,-0.90642 15.82419,-2.24282 23.30609,-5.00169 -11.0496,6.54843 -22.15926,12.99658 -33.14882,19.64531 -0.8094,0.48969 1.80917,-0.62537 2.59113,-1.15778 3.23958,-2.20573 3.55315,-7.32797 4.21247,-10.77405 0.74018,-6.47517 0.27593,-13.10436 -0.90723,-19.50843 -1.61737,-6.00482 -4.48694,-11.51028 -7.37055,-16.99609 -4.26171,-7.9597 -7.65567,-16.35236 -11.98603,-24.27831 -4.04026,-6.00767 -8.67628,-11.2557 -15.86612,-13.39263 -6.51069,-1.97404 -13.41287,-2.58696 -20.19039,-2.78558 -9.5122,0.44871 -18.944,1.65471 -28.19281,4.0004 -14.78608,3.60864 -29.44875,7.69399 -43.87904,12.54458 0,0 33.48289,-25.85046 33.48289,-25.85046 z"
       inkscape:connector-curvature="0" />
  </g>
  <g
     inkscape:groupmode="layer"
     id="layer5"
     inkscape:label="ArmL"
     style="display:inline">
    <path
       style="fill:#000000;fill-opacity:1;display:inline"
       id="path3202-6"
       d="m 335.37595,337.91391 c 4.23028,-10.21059 8.0266,-20.59813 11.65196,-31.03714 2.56008,-7.92501 6.6132,-15.22032 10.01214,-22.78676 2.01116,-5.78896 4.30859,-11.47249 6.40043,-17.23042 2.30725,-6.74692 5.23486,-13.24714 8.0185,-19.80397 2.70149,-6.32118 7.15211,-11.50439 12.19742,-16.06649 16.22719,-12.35344 33.65751,-25.35446 54.10895,-28.10286 6.9706,-2.19315 14.26413,-2.80271 21.51289,-3.28813 7.56963,-0.39363 15.15418,-0.33221 22.73161,-0.34896 7.88501,0.0263 15.76997,0.0376 23.65512,0.0233 6.53414,-0.40027 12.54605,1.98621 17.5684,6.0275 4.30813,2.9524 8.60958,5.83157 12.36743,9.4924 4.0316,4.34883 7.17911,9.45216 10.38623,14.42168 2.69983,5.14536 5.51614,10.23974 8.16974,15.41489 2.58921,5.27349 3.35915,11.05923 3.80945,16.84149 0.93521,4.88906 1.97663,9.72937 2.52136,14.68489 0.40682,4.643 1.3334,9.33829 2.70791,13.79688 0,0 -37.2414,20.48644 -37.2414,20.48644 l 0,0 c -1.60472,-4.6737 -2.544,-9.7419 -3.09505,-14.63195 -0.45746,-5.01728 -1.39916,-9.92501 -2.5587,-14.8261 -0.29033,-5.22988 -0.7255,-10.51616 -2.99725,-15.3247 -2.57312,-5.05258 -5.30718,-10.02784 -7.88754,-15.07076 -3.05357,-4.67117 -6.03768,-9.49883 -9.96685,-13.4918 -3.7572,-3.40699 -7.98267,-6.10883 -12.0704,-9.08627 -4.83022,-3.20685 -10.14818,-4.25314 -15.92475,-3.88428 -7.87713,-0.0318 -15.75411,-0.0511 -23.63124,-0.0237 -7.52053,0.0158 -15.05049,0.0422 -22.55323,0.62174 -7.19011,0.6611 -14.25099,1.90968 -21.26088,3.64723 -2.86581,0.68307 -3.83622,0.80451 -6.53952,1.86255 -1.02103,0.39961 -3.9431,1.90714 -3.00194,1.34463 58.37871,-34.89154 40.93354,-24.0322 28.49493,-16.499 -5.10929,4.08712 -9.98671,8.5232 -13.13145,14.36872 -2.84389,6.40273 -5.47909,12.87697 -8.01464,19.40777 -1.85774,5.94485 -4.62446,11.54631 -6.32255,17.5495 -3.09586,7.72399 -7.60876,14.79611 -10.41122,22.65554 -3.58,10.38647 -7.46577,20.6641 -11.25942,30.97361 0,0 -38.44644,17.88246 -38.44644,17.88246 z"
       inkscape:connector-curvature="0" />
  </g>
  <g
     inkscape:label="ArmR"
     id="g3149"
     inkscape:groupmode="layer"
     style="display:inline">
    <path
       style="fill:#000000;fill-opacity:1"
       id="path3202"
       d="m 318.94493,670.37928 c 4.23028,10.21059 8.0266,20.59813 11.65195,31.03714 2.56008,7.92501 6.6132,15.22032 10.01214,22.78676 2.01116,5.78896 4.30859,11.47249 6.40043,17.23042 2.30725,6.74692 5.23486,13.24714 8.0185,19.80397 2.70149,6.32118 7.15211,11.50439 12.19742,16.06649 16.22719,12.35344 33.65751,25.35446 54.10895,28.10286 6.9706,2.19315 14.26413,2.80271 21.51289,3.28813 7.56963,0.39363 15.15418,0.33221 22.73161,0.34896 7.88501,-0.0263 15.76997,-0.0376 23.65512,-0.0233 6.53414,0.40027 12.54605,-1.98621 17.5684,-6.0275 4.30813,-2.9524 8.60958,-5.83157 12.36743,-9.4924 4.0316,-4.34883 7.17911,-9.45216 10.38623,-14.42168 2.69983,-5.14536 5.51614,-10.23974 8.16974,-15.41489 2.58921,-5.27349 3.35915,-11.05923 3.80945,-16.84149 0.93521,-4.88906 1.97663,-9.72937 2.52136,-14.68489 0.40682,-4.643 1.3334,-9.33829 2.70791,-13.79688 0,0 -37.2414,-20.48644 -37.2414,-20.48644 l 0,0 c -1.60472,4.6737 -2.544,9.7419 -3.09505,14.63195 -0.45746,5.01728 -1.39916,9.92501 -2.5587,14.8261 -0.29033,5.22988 -0.7255,10.51616 -2.99725,15.3247 -2.57312,5.05258 -5.30718,10.02784 -7.88754,15.07076 -3.05357,4.67117 -6.03768,9.49883 -9.96685,13.4918 -3.7572,3.40699 -7.98267,6.10883 -12.0704,9.08627 -4.83022,3.20685 -10.14818,4.25314 -15.92475,3.88428 -7.87713,0.0318 -15.75411,0.0511 -23.63124,0.0237 -7.52053,-0.0158 -15.05049,-0.0422 -22.55323,-0.62174 -7.19011,-0.6611 -14.25099,-1.90968 -21.26088,-3.64723 -2.86581,-0.68307 -3.83622,-0.80451 -6.53952,-1.86255 -1.02103,-0.39961 -3.9431,-1.90714 -3.00194,-1.34463 58.37871,34.89154 40.93354,24.0322 28.49493,16.499 -5.10929,-4.08712 -9.98671,-8.5232 -13.13145,-14.36872 -2.84389,-6.40273 -5.47909,-12.87697 -8.01464,-19.40777 -1.85774,-5.94485 -4.62446,-11.54631 -6.32255,-17.5495 -3.09586,-7.72399 -7.60876,-14.79611 -10.41122,-22.65554 -3.58,-10.38647 -7.46577,-20.6641 -11.25942,-30.97361 0,0 -38.44643,-17.88246 -38.44643,-17.88246 z"
       inkscape:connector-curvature="0" />
    <path
       style="fill:#000000;fill-opacity:1"
       id="path3245"
       d="m 382.90724,305.22988 c 15.12302,2.31911 30.27159,1.29907 45.42164,0.0446 15.38317,-1.52809 30.47746,-4.84829 45.70889,-7.35893 7.51379,-1.27864 15.11702,-1.71824 22.72487,-1.85101 5.59816,-1.29612 11.27382,-2.06294 16.99791,-2.48539 6.35863,-0.4936 12.74333,0.0791 19.06038,-0.81647 7.14203,-1.10263 14.05698,-3.42687 21.01247,-5.36858 0,0 -33.50369,25.78394 -33.50369,25.78394 l 0,0 c -7.04574,2.02428 -14.14607,4.12011 -21.47594,4.77681 -6.38895,0.37305 -12.80264,0.22013 -19.17789,0.86834 -5.73498,0.6327 -11.38362,1.87767 -17.14281,2.24216 -7.38518,0.2433 -14.75209,0.84406 -22.04659,2.06615 -15.1186,2.44382 -30.16115,5.43234 -45.44303,6.73633 -15.60198,1.21532 -31.17943,1.73189 -46.76819,-0.12848 0,0 34.63198,-24.50948 34.63198,-24.50948 z"
       inkscape:connector-curvature="0" />
    <path
       style="fill:#000000;fill-opacity:1"
       id="path3247"
       d="m 365.90691,668.64133 c 8.62641,2.35325 17.15756,4.90603 25.9878,6.41022 6.88865,0.95846 13.68644,2.44085 20.33058,4.48637 5.46745,0.91121 10.39298,3.38616 15.5479,5.28548 5.87341,1.74014 11.88445,3.09065 17.66026,5.14383 5.48775,2.28854 11.49015,2.26236 17.16985,3.65954 5.48687,0.77637 10.64704,2.53188 15.96839,3.95666 4.92872,0.46544 9.55764,1.87612 14.34686,3.01023 5.18019,0.60942 9.62328,3.38882 14.42095,5.16692 5.96192,1.49138 12.13356,1.63385 18.24342,1.78496 6.47399,0.10157 12.94909,0.0513 19.42348,0.0262 0,0 -34.28632,24.92218 -34.28632,24.92218 l 0,0 c -6.48384,0.004 -12.96944,0.0145 -19.45068,-0.19635 -6.48443,-0.28053 -13.06114,-0.63915 -19.21623,-2.89774 -4.58521,-1.96327 -9.13096,-3.92465 -14.11326,-4.68449 -4.77201,-1.2644 -9.62222,-1.93947 -14.40868,-3.13143 -5.17772,-1.56378 -10.41398,-2.72942 -15.73086,-3.73671 -5.90044,-0.96526 -11.8055,-1.9007 -17.4201,-4.06782 -5.92616,-1.76154 -11.91351,-3.33349 -17.77658,-5.2933 -5.0514,-1.94806 -10.10164,-3.81337 -15.38537,-5.04743 -6.52881,-1.92347 -13.25954,-3.01571 -19.95328,-4.20643 -8.84453,-1.84898 -17.44248,-4.6151 -26.27516,-6.50652 0,0 34.91703,-24.08439 34.91703,-24.08439 z"
       inkscape:connector-curvature="0" />
    <path
       style="fill:#ffffff;fill-opacity:1"
       d="m 387.52184,288.71429 c 4.01882,-9.03572 11.10814,-26.23897 15.75405,-38.22945 9.79156,-25.27069 9.93527,-25.34198 51.08114,-25.34198 22.82712,0 25.86776,0.68089 36.07143,8.07746 12.27211,8.89597 25.29846,30.3876 28.3296,46.73985 2.23999,12.08416 4.38953,11.23473 -42.28452,16.70951 -13.80383,1.61916 -31.65789,4.18801 -39.67568,5.70855 -8.01779,1.52055 -24.02896,2.76463 -35.58037,2.76463 l -21.00258,0 7.30693,-16.42857 0,0 z"
       id="path3249"
       inkscape:connector-curvature="0" />
    <path
       style="fill:#ffffff;fill-opacity:1"
       d="m 399.61218,780.35157 c -2.88576,-0.76169 -8.24037,-10.07735 -13.35827,-23.23999 -4.69804,-12.0828 -11.45226,-28.68998 -15.00939,-36.90485 -3.55713,-8.21487 -5.7773,-15.62633 -4.93371,-16.46992 0.84359,-0.84359 9.76519,0.99818 19.82578,4.09283 32.85947,10.10761 97.3203,25.88465 105.75783,25.88465 9.75135,0 10.13014,2.41145 2.5985,16.54239 -6.98065,13.09718 -10.66278,17.56285 -21.16395,25.66757 -7.41123,5.71994 -11.301,6.32804 -38.57142,6.03003 -16.68094,-0.18228 -32.49636,-0.90351 -35.14537,-1.60271 l 0,0 z"
       id="path3251"
       inkscape:connector-curvature="0" />
  </g>
  <g
     inkscape:label="Head"
     inkscape:groupmode="layer"
     id="layer1"
     transform="translate(0,-52.362183)"
     style="display:inline">
    <path
       sodipodi:type="arc"
       style="fill:url(#radialGradient3107);fill-opacity:1"
       id="path3043"
       sodipodi:cx="501.42856"
       sodipodi:cy="502.85715"
       sodipodi:rx="250"
       sodipodi:ry="248.57143"
       d="m 751.42856,502.85715 a 250,248.57143 0 1 1 -500,0 250,248.57143 0 1 1 500,0 z"
       transform="translate(6,52.362183)" />
  </g>
</svg>
